# xmcd
#
# Track frame offsets: 
#        150
#        14882
#        32372
#        47106
#        51861
#        59193
#        63599
#        68145
#        75073
#        79183
#        90828
#        104999
#        116979
#        127737
#        155892
#        159992
#        164736
#        168677
#        172249
#        176863
#        190582
#        200073
#        211108
#        244493
#
# Disc length: 3439 seconds
#
# Revision: 1
# Processed by: cddbd v1.5.2PL0 Copyright (c) Steve Scherf et al.
# Submitted via: ExactAudioCopy v0.99pb5
#
DISCID=640d6d18
DTITLE=Ben van Oosten - Marcel Dupre - Organ Works Vol.12
DYEAR=2010
DGENRE=Organ
TTITLE0=Choral and fugue, organ   Choral  Op. 57
TTITLE1=Choral and fugue, organ   Fugue  Op. 57
TTITLE2=Regina Coeli, organ     Op. 64
TTITLE3=Chorales (79), organ   No. 61 - O innocent lamb of God  Op. 28
TTITLE3=
TTITLE4=Chorales (79), organ   No. 15 - Christ Jesus Who Maketh Us Gla
TTITLE4=d  Op. 28
TTITLE5=Chorales (79), organ   No. 16 - Jesus On The Cross  Op. 28
TTITLE6=Chorales (79), organ   No. 76 - We thank Thee, Lord Jesus, for
TTITLE6=Thy redemptive death  Op. 28
TTITLE7=Chorales (79), organ   No. 62 - O man, mourn for thy many sins
TTITLE7=Op. 28
TTITLE8=Chorales (79), organ   No. 11 - Christ is risen from the dead 
TTITLE8=Op. 28
TTITLE9=Modal Fugues (4), organ   No. 1  Mode Dorien  Op. 63
TTITLE10=Modal Fugues (4), organ   No. 2  Mode Phrygien  Op. 63
TTITLE11=Modal Fugues (4), organ   No. 3  Mode Locrien  Op. 63
TTITLE12=Modal Fugues (4), organ   No. 4  Mode Ionien  Op. 63
TTITLE13=Scherzo, organ     Op. 16
TTITLE14=Chorales (79), organ   No. 24 - The glorious day is come  Op.
TTITLE14=28
TTITLE15=Chorales (79), organ   No. 12 - Christ lay in the bonds of de
TTITLE15=ath  Op. 28
TTITLE16=Chorales (79), organ   No. 34 - On this day the son of God tr
TTITLE16=iumpheth  Op. 28
TTITLE17=Chorales (79), organ   No. 43 - Jesus Christ, out Saviour  Op
TTITLE17=28
TTITLE18=Chorales (79), organ   No. 25 - Holy Jesus is risen from the 
TTITLE18=dead  Op. 28
TTITLE19=Elévations (3), organ   Quasi lento  Op. 32
TTITLE20=Elévations (3), organ   Très moderé  Op. 32
TTITLE21=Elévations (3), organ   Lento  Op. 32
TTITLE22=Vitrail de St. Ouen, organ     Op. 65
TTITLE23=Souvenir, organ     Op. 65bis
EXTD=
EXTT0=
EXTT1=
EXTT2=
EXTT3=
EXTT4=
EXTT5=
EXTT6=
EXTT7=
EXTT8=
EXTT9=
EXTT10=
EXTT11=
EXTT12=
EXTT13=
EXTT14=
EXTT15=
EXTT16=
EXTT17=
EXTT18=
EXTT19=
EXTT20=
EXTT21=
EXTT22=
EXTT23=
PLAYORDER=
